# xmcd
#
# Track frame offsets: 
#        150
#        14120
#        29002
#        50065
#        64947
#        86405
#        106432
#        128195
#        146460
#        164885
#        175122
#        192460
#        210527
#        229570
#        245510
#        260172
#        274972
#
# Disc length: 3878 seconds
#
# Revision: 6
# Processed by: cddbd v1.5.2PL0 Copyright (c) Steve Scherf et al.
# Submitted via: ExactAudioCopyFreeDBPlugin 1.0
#
DISCID=0b0f2411
DTITLE=玉置浩二 - Best Harvest
DYEAR=2003
DGENRE=JPop
TTITLE0=ルーキー
TTITLE1=願い
TTITLE2=Happy Birthday
TTITLE3=Grand Love
TTITLE4=愛だったんだよ
TTITLE5=ﾜｲﾝﾚｯﾄﾞの心
TTITLE6=悲しみにさよなら
TTITLE7=夏の終りのﾊｰﾓﾆｰ
TTITLE8=虹色だった
TTITLE9=凡人
TTITLE10=aibo
TTITLE11=常夜灯
TTITLE12=淋しんぼう
TTITLE13=このﾘｽﾞﾑで
TTITLE14=甘んじて受け入れよう
TTITLE15=どうなってもいい
TTITLE16=君だけを
EXTD=¥É¸m¯E¤G Koji Tamaki
EXTT0=
EXTT1=
EXTT2=
EXTT3=
EXTT4=
EXTT5=
EXTT6=
EXTT7=
EXTT8=
EXTT9=
EXTT10=
EXTT11=
EXTT12=
EXTT13=
EXTT14=
EXTT15=
EXTT16=
PLAYORDER=
